<?xml version="1.0" encoding="UTF-8"?>
<svg width="416px" height="384px" viewBox="0 0 416 384" version="1.1" xmlns="http://www.w3.org/2000/svg" xmlns:xlink="http://www.w3.org/1999/xlink">
    <title>icon-alarm</title>
    <g id="Page-1" stroke="none" stroke-width="1" fill="none" fill-rule="evenodd">
        <g id="icon-alarm" transform="translate(16.000000, 16.000000)" stroke="#FFFCF2" stroke-width="32">
            <path d="M352.000372,192 C352.000372,103.63444 280.365932,32 192.000372,32 C103.634812,32 32.0003717,103.63444 32.0003717,192 C32.0003717,280.36556 103.634812,352 192.000372,352 C234.43501,352 275.131636,335.142906 305.137457,305.137085 C335.143277,275.131264 352.000372,234.434638 352.000372,192 Z M78.0503717,11.21 C69.654174,4.02522587 58.9809065,0.0528710128 47.9303717,0 L45.1403717,0.08 C19.5903717,1.62 -0.0696283054,24 0.000185352677,51 C0.000185352677,64.21 4.66037169,70.37 10.8803717,78.23 C11.6617232,79.2513435 12.8387737,79.8943619 14.1203717,80 L15.0003717,80 C16.0046724,79.9820302 16.9434532,79.4978559 17.5403717,78.69 L78.3103717,19 C79.3592585,17.9392248 79.920615,16.4905631 79.8603717,15 C79.8094672,13.5401458 79.1537876,12.1672036 78.0503717,11.21 L78.0503717,11.21 Z M305.810372,11.21 C314.206569,4.02522587 324.879837,0.0528710128 335.930372,1.42108547e-14 L338.720372,0.08 C364.270372,1.62 383.930372,24 383.860558,51 C383.860558,64.21 379.200372,70.37 372.980372,78.23 C372.197117,79.2475857 371.020341,79.8868218 369.740372,79.99 L368.860372,79.99 C367.856071,79.9720302 366.91729,79.4878559 366.320372,78.68 L305.550372,19 C304.501485,17.9392248 303.940128,16.4905631 304.000372,15 C304.051276,13.5401458 304.706956,12.1672036 305.810372,11.21 L305.810372,11.21 Z" id="Shape"></path>
            <path d="M192.000372,80 L192.000372,192 L112.000372,192 M352.000372,352 L312.000372,312 M32.0003717,352 L72.0003717,312" id="Shape" stroke-linecap="round" stroke-linejoin="round"></path>
        </g>
    </g>
</svg>