<?xml version="1.0" encoding="UTF-8"?>
<svg width="417px" height="416px" viewBox="0 0 417 416" version="1.1" xmlns="http://www.w3.org/2000/svg" xmlns:xlink="http://www.w3.org/1999/xlink">
    <title>icon-timer</title>
    <g id="Page-1" stroke="none" stroke-width="1" fill="none" fill-rule="evenodd">
        <g id="icon-timer" transform="translate(16.000000, 16.000000)">
            <path d="M48.9218864,64.0022516 C17.8738351,98.6786244 0.490932638,143.459767 0.0118864124,190.002252 C-1.16811359,296.352252 85.6618864,383.802252 192.011886,384.0026 C298.211886,384.202252 384.011886,298.172252 384.011886,192.002252 C384.011886,87.4622516 300.461886,2.39225163 196.511886,0 C195.329744,-0.0357313422 194.182893,0.408181737 193.334395,1.23216846 C192.485896,2.05615518 192.008564,3.18950335 192.011886,4.37225163 L192.011886,88.0022516" id="Path" stroke="#252422" stroke-width="32" stroke-linecap="round" stroke-linejoin="round"></path>
            <path d="M169.391886,214.632252 L90.3918864,101.632252 C88.1360517,98.400706 88.5227873,94.0166035 91.3095128,91.229878 C94.0962382,88.4431525 98.4803407,88.0564169 101.711886,90.3122516 L214.711886,169.312252 C229.134406,179.699648 232.53742,199.74619 222.350704,214.311144 C212.163987,228.876097 192.166482,232.556336 177.461886,222.572252 C174.337269,220.406977 171.607616,217.721295 169.391886,214.632252 Z" id="Path" fill="#252422" fill-rule="nonzero"></path>
        </g>
    </g>
</svg>