<?xml version="1.0" encoding="UTF-8"?>
<svg width="416px" height="412px" viewBox="0 0 416 412" version="1.1" xmlns="http://www.w3.org/2000/svg" xmlns:xlink="http://www.w3.org/1999/xlink">
    <title>icon-settings</title>
    <g id="Page-1" stroke="none" stroke-width="1" fill="none" fill-rule="evenodd">
        <g id="icon-settings" fill="#252422" fill-rule="nonzero">
            <path d="M408.701197,192.259278 L382.621197,188.059278 C379.164686,187.477307 376.489558,184.713007 376.021197,181.239278 C375.521197,178.039278 375.021197,174.829278 374.321197,171.729278 C373.627153,168.315664 375.198981,164.841522 378.221197,163.109278 L401.311197,150.289278 C404.92774,148.440103 406.600096,144.186318 405.211197,140.369278 L401.211197,129.369278 C399.825057,125.537489 395.763333,123.376997 391.811197,124.369278 L365.921197,129.369278 C362.465493,130.038175 358.978581,128.369815 357.331197,125.259278 C355.831197,122.459278 354.231197,119.655945 352.531197,116.849278 C350.69049,113.856215 350.972497,110.020915 353.231197,107.329278 L370.521197,87.3892782 C373.296682,84.4362581 373.425552,79.8742712 370.821197,76.7692782 L363.331197,67.7692782 C360.744735,64.6327446 356.196693,63.9786928 352.831197,66.2592782 L330.141197,79.8892782 C327.148438,81.6628045 323.352592,81.2989853 320.751197,78.9892782 C318.351197,76.8792782 315.851197,74.7792782 313.351197,72.7692782 C310.622503,70.601321 309.611252,66.9163242 310.851197,63.6592782 L320.251197,38.9092782 C321.90726,35.1917927 320.508533,30.8234588 317.001197,28.7592782 L306.801197,22.8492782 C303.277924,20.8485886 298.81519,21.7978324 296.411197,25.0592782 L279.771197,45.8992782 C277.857785,48.5992044 274.34167,49.6333559 271.271197,48.3992782 C271.271197,48.3992782 265.671197,46.0992782 261.471197,44.6892782 C258.165587,43.5876904 255.95314,40.4732762 256.001197,36.9892782 L256.401197,10.5392782 C256.644975,6.46806588 253.812811,2.85491079 249.801197,2.1192782 L238.211197,0.119278199 C234.196608,-0.5760356 230.293426,1.83021181 229.111197,5.7292782 L220.511197,30.7792782 C219.378664,34.0933644 216.222131,36.285514 212.721197,36.1892782 L202.921197,36.1892782 C199.426997,36.2630596 196.282419,34.0792123 195.131197,30.7792782 L186.531197,5.7292782 C185.348968,1.83021181 181.445786,-0.5760356 177.431197,0.119278199 L165.841197,2.1192782 C161.829584,2.85491079 158.997419,6.46806588 159.241197,10.5392782 L159.641197,36.9892782 C159.690841,40.4822844 157.468278,43.6035896 154.151197,44.6992782 C151.851197,45.5992782 146.851197,47.5092782 144.451197,48.4092782 C141.651197,49.4092782 138.351197,48.6092782 135.651197,45.4992782 L119.141197,25.1592782 C116.725468,21.9117567 112.264807,20.980127 108.751197,22.9892782 L98.5511972,28.8992782 C95.0339761,30.9248078 93.610611,35.2768543 95.2511972,38.9892782 L104.651197,63.7392782 C105.871264,66.9972513 104.863271,70.6703775 102.151197,72.8492782 C99.6511972,74.8492782 97.1511972,76.9592782 94.7511972,79.0692782 C92.1498025,81.3789853 88.3539561,81.7428045 85.3611972,79.9692782 L63.0011972,66.1292782 C59.622673,63.9061515 55.1163515,64.5542034 52.5011972,67.6392782 L45.0111972,76.6392782 C42.4068428,79.7442712 42.5357125,84.3062581 45.3111972,87.2592782 L62.6011972,107.199278 C64.9096013,109.870518 65.1940576,113.739122 63.3011972,116.719278 C61.6011972,119.385945 60.0011972,122.189278 58.5011972,125.129278 C56.828253,128.213057 53.3621028,129.871482 49.9111972,129.239278 L24.0211972,124.239278 C20.0726777,123.276219 16.0295481,125.42682 14.6211972,129.239278 L10.6211972,140.239278 C9.23229885,144.056318 10.904654,148.310103 14.5211972,150.159278 L37.5811972,162.989278 C40.6380831,164.689814 42.2219454,168.190555 41.4811972,171.609278 C40.8811972,174.809278 40.2811972,177.919278 39.7811972,181.119278 C39.288748,184.581272 36.6251893,187.333616 33.1811972,187.939278 L7.10119719,192.139278 C3.08772745,192.633764 0.0558250632,196.01583 0.00059139042,200.059278 L0.00059139042,211.779278 C-0.0490837119,215.8629 3.03637185,219.304704 7.10119719,219.699278 L33.1811972,223.899278 C36.6377079,224.481249 39.3128366,227.245549 39.7811972,230.719278 C40.2811972,233.919278 40.7811972,237.129278 41.4811972,240.229278 C42.1752411,243.642892 40.6034135,247.117035 37.5811972,248.849278 L14.4911972,261.689278 C10.874654,263.538453 9.20229885,267.792238 10.5911972,271.609278 L14.5911972,282.609278 C15.9773376,286.441068 20.0390616,288.601559 23.9911972,287.609278 L49.8811972,282.609278 C53.3369012,281.940381 56.8238139,283.608741 58.4711972,286.719278 C59.9711972,289.519278 61.5711972,292.322612 63.2711972,295.129278 C65.1119043,298.122342 64.8298969,301.957642 62.5711972,304.649278 L45.2811972,324.609278 C42.5057125,327.562298 42.3768428,332.124285 44.9811972,335.229278 L52.4711972,344.229278 C55.0576595,347.365812 59.6057016,348.019864 62.9711972,345.739278 L85.6611972,332.109278 C88.6539561,330.335752 92.4498025,330.699571 95.0511972,333.009278 C97.4511972,335.119278 99.9511972,337.219278 102.451197,339.229278 C105.179892,341.397235 106.191142,345.082232 104.951197,348.339278 L95.5511972,373.089278 C93.9217978,376.811172 95.3409845,381.163345 98.8511972,383.209278 L109.051197,389.119278 C112.57447,391.119968 117.037204,390.170724 119.441197,386.909278 L136.231197,366.269278 C138.331197,363.669278 141.731197,362.569278 144.431197,363.669278 C147.831197,365.069278 150.131197,365.869278 154.331197,367.279278 C157.648278,368.374967 159.870841,371.496272 159.821197,374.989278 L159.421197,401.439278 C159.177419,405.510491 162.009584,409.123646 166.021197,409.859278 L177.611197,411.859278 C181.625786,412.554592 185.528968,410.148345 186.711197,406.249278 L195.311197,381.249278 C196.44373,377.935192 199.600263,375.743042 203.101197,375.839278 L212.901197,375.839278 C216.395397,375.765497 219.539976,377.949344 220.691197,381.249278 L229.291197,406.249278 C230.473426,410.148345 234.376608,412.554592 238.391197,411.859278 L249.981197,409.859278 C253.992811,409.123646 256.824975,405.510491 256.581197,401.439278 L256.181197,374.989278 C256.131553,371.496272 258.354117,368.374967 261.671197,367.279278 C265.871197,365.869278 268.671197,364.769278 271.271197,363.769278 C273.871197,362.769278 277.071197,362.769278 279.571197,365.869278 L296.571197,386.809278 C298.987725,390.082398 303.475995,391.020502 307.001197,388.989278 L317.201197,383.079278 C320.738132,381.055003 322.164949,376.679429 320.501197,372.959278 L311.101197,348.209278 C309.882823,344.948147 310.890189,341.273276 313.601197,339.089278 C316.101197,337.089278 318.601197,334.989278 321.001197,332.879278 C323.602592,330.569571 327.398438,330.205752 330.391197,331.979278 L353.001197,345.649278 C356.379721,347.872405 360.886043,347.224353 363.501197,344.139278 L370.991197,335.139278 C373.595552,332.034285 373.466682,327.472298 370.691197,324.519278 L353.401197,304.579278 C351.092793,301.908039 350.808337,298.039434 352.701197,295.059278 C354.401197,292.359278 356.001197,289.555945 357.501197,286.649278 C359.174141,283.5655 362.640292,281.907074 366.091197,282.539278 L391.981197,287.539278 C395.929717,288.502337 399.972846,286.351736 401.381197,282.539278 L405.381197,271.539278 C406.770096,267.722238 405.09774,263.468453 401.481197,261.619278 L378.391197,248.799278 C375.334311,247.098743 373.750449,243.598001 374.491197,240.179278 C375.091197,236.979278 375.691197,233.869278 376.191197,230.669278 C376.683646,227.207284 379.347205,224.45494 382.791197,223.849278 L408.871197,219.649278 C412.884667,219.154792 415.916569,215.772726 415.971197,211.729278 L415.971197,199.989278 C415.746287,195.989167 412.68001,192.728876 408.701197,192.259278 L408.701197,192.259278 Z M208.001197,61.9890469 C273.703744,61.9612792 331.072059,106.463088 347.381197,170.109278 C348.576284,174.890371 347.50141,179.955438 344.46755,183.839092 C341.433689,187.722747 336.779389,189.991612 331.851197,189.98928 L226.611197,189.98928 C220.85715,189.98928 215.545854,186.900976 212.701197,181.899278 L160.601197,90.1892782 C158.142333,85.8678953 157.83214,80.6489985 159.761806,76.0667771 C161.691472,71.4845557 165.641681,68.0597996 170.451197,66.7992782 C182.708102,63.5835444 195.32949,61.9667967 208.001197,61.9890469 Z M64.0011346,205.989278 C63.964892,167.034089 79.7127948,129.726171 107.651197,102.579278 C111.190432,99.0754901 116.159386,97.4195445 121.092955,98.0996989 C126.026524,98.7798532 130.36205,101.718538 132.821197,106.049278 L185.061197,197.989278 C187.869555,202.906553 187.869555,208.942004 185.061197,213.859278 L132.391197,305.559278 C129.912882,309.877453 125.565613,312.795831 120.630534,313.454364 C115.695454,314.112897 110.735065,312.436526 107.211197,308.919278 C79.5481312,281.818841 63.9719253,244.714955 64.0011346,205.989278 L64.0011346,205.989278 Z M208.001197,349.989758 C195.10914,350.022224 182.268837,348.357927 169.811197,345.039278 C165.002888,343.761339 161.062676,340.319356 159.150237,335.726367 C157.237799,331.133379 157.570787,325.912111 160.051197,321.599278 L212.631197,230.049278 C215.493532,225.091554 220.78652,222.04084 226.511197,222.049261 L331.901197,222.049261 C336.827634,222.049261 341.47906,224.320188 344.510626,228.203406 C347.542193,232.086624 348.615858,237.149889 347.421197,241.929278 C331.079004,305.56197 273.698873,350.035481 208.001197,349.989758 Z" id="Shape"></path>
        </g>
    </g>
</svg>