<?xml version="1.0" encoding="UTF-8"?><svg version="1.1" width="520px" height="520px" viewBox="0 0 520.0 520.0" xmlns="http://www.w3.org/2000/svg" xmlns:xlink="http://www.w3.org/1999/xlink"><defs><clipPath id="i0"><path d="M520,0 L520,520 L0,520 L0,0 L520,0 Z"></path></clipPath><clipPath id="i1"><path d="M316.588489,18.2257936 C313.178016,7.88943935 322.097713,-2.76172767 332.381598,0.648744528 C339.989116,3.16395549 347.474182,6.03541969 354.812012,9.25362823 L355.074356,9.38480024 C468.714981,59.2848945 531.851147,181.980828 506.395866,303.456092 C480.940585,424.931356 373.856911,511.957527 249.743234,512.03594 C145.556915,512.057838 51.2269209,450.437557 9.38364667,355.023041 L9.27870906,354.760697 C6.05839899,347.420545 3.17830034,339.93579 0.647590954,332.330283 C-2.76288125,322.046398 7.91452018,313.126701 18.22464,316.537173 C24.9599416,318.737663 31.7872659,320.645813 38.6874732,322.256273 L38.7924108,322.308742 C108.95785,338.63792 182.739277,322.040459 239.152616,277.236821 C295.565956,232.433183 328.438202,164.325987 328.420204,92.2855091 C328.429928,74.2743778 326.396887,56.3202485 322.360057,38.76733 L322.360057,38.7935644 L322.307588,38.6623924 C320.710763,31.7673367 318.802441,24.9481488 316.588489,18.2257936 Z"></path></clipPath></defs><g clip-path="url(#i0)"><g transform="translate(4.0 4.0)"><g clip-path="url(#i1)"><polygon points="3.55271368e-15,0 512,0 512,512.035945 3.55271368e-15,512.035945 3.55271368e-15,0" stroke="none" fill="#000000"></polygon></g></g></g></svg>