<?xml version="1.0" encoding="UTF-8"?><svg version="1.1" width="520px" height="520px" viewBox="0 0 520.0 520.0" xmlns="http://www.w3.org/2000/svg" xmlns:xlink="http://www.w3.org/1999/xlink"><defs><clipPath id="i0"><path d="M520,0 L520,520 L0,520 L0,0 L520,0 Z"></path></clipPath><clipPath id="i1"><path d="M256,426.666667 C264.836556,426.666667 272,433.830111 272,442.666667 L272,496 C272,504.836556 264.836556,512 256,512 C247.163444,512 240,504.836556 240,496 L240,442.666667 C240,433.830111 247.163444,426.666667 256,426.666667 Z M124,371.992749 C128.245241,371.992749 132.316457,373.679867 135.317333,376.682667 C141.556339,382.929441 141.556339,393.049226 135.317333,399.296 L97.6,437.013333 C93.6112943,441.293934 87.6041484,443.055983 81.9351699,441.608225 C76.2661915,440.160467 71.8395328,435.733809 70.3917751,430.06483 C68.9440175,424.395852 70.7060655,418.388706 74.9866667,414.4 L112.682667,376.682667 C115.683543,373.679867 119.754759,371.992749 124,371.992749 Z M399.296,376.682667 L437.013333,414.4 C442.887656,420.704208 442.714323,430.528207 436.621265,436.621265 C430.528207,442.714323 420.704208,442.887656 414.4,437.013333 L376.682667,399.317333 C373.679867,396.316457 371.992749,392.245241 371.992749,388 C371.992749,383.754759 373.679867,379.683543 376.682667,376.682667 C382.929441,370.443661 393.049226,370.443661 399.296,376.682667 Z M256,106.666667 C309.351662,106.666667 358.650631,135.129438 385.326462,181.333333 C412.002293,227.537227 412.002293,284.462773 385.326462,330.666667 C358.650631,376.870562 309.351662,405.333333 256,405.333333 C173.525477,405.333333 106.666667,338.474523 106.666667,256 C106.666667,173.525477 173.525477,106.666667 256,106.666667 Z M496,240 C504.836556,240 512,247.163444 512,256 C512,264.836556 504.836556,272 496,272 L442.666667,272 C433.830111,272 426.666667,264.836556 426.666667,256 C426.666667,247.163444 433.830111,240 442.666667,240 L496,240 Z M69.3333333,240 C78.1698893,240 85.3333333,247.163444 85.3333333,256 C85.3333333,264.836556 78.1698893,272 69.3333333,272 L16,272 C7.163444,272 0,264.836556 0,256 C0,247.163444 7.163444,240 16,240 L69.3333333,240 Z M97.6,74.9866667 L135.317333,112.704 C139.597934,116.692706 141.359983,122.699852 139.912225,128.36883 C138.464467,134.037809 134.037809,138.464467 128.36883,139.912225 C122.699852,141.359983 116.692706,139.597934 112.704,135.317333 L74.9866667,97.6 C68.7476613,91.3532257 68.7476613,81.233441 74.9866667,74.9866667 C81.233441,68.7476613 91.3532257,68.7476613 97.6,74.9866667 Z M425.696,70.2967492 C429.941241,70.2967492 434.012457,71.9838665 437.013333,74.9866667 C443.252339,81.233441 443.252339,91.3532257 437.013333,97.6 L399.296,135.317333 C392.991792,141.191656 383.167793,141.018323 377.074735,134.925265 C370.981677,128.832207 370.808344,119.008208 376.682667,112.704 L414.378667,74.9866667 C417.379543,71.9838665 421.450759,70.2967492 425.696,70.2967492 Z M256,0 C264.836556,0 272,7.163444 272,16 L272,69.3333333 C272,78.1698893 264.836556,85.3333333 256,85.3333333 C247.163444,85.3333333 240,78.1698893 240,69.3333333 L240,16 C240,7.163444 247.163444,0 256,0 Z"></path></clipPath></defs><g clip-path="url(#i0)"><g transform="translate(4.0 4.0)"><g clip-path="url(#i1)"><polygon points="0,0 512,0 512,512 0,512 0,0" stroke="none" fill="#000000"></polygon></g></g></g></svg>